<?xml version="1.0" standalone="no"?>
<!DOCTYPE svg PUBLIC "-//W3C//DTD SVG 20010904//EN"
 "http://www.w3.org/TR/2001/REC-SVG-20010904/DTD/svg10.dtd">
<svg version="1.0" xmlns="http://www.w3.org/2000/svg"
 width="774.000000pt" height="774.000000pt" viewBox="0 0 774.000000 774.000000"
 preserveAspectRatio="xMidYMid meet">
<metadata>
Created by potrace 1.14, written by Peter Selinger 2001-2017
</metadata>
<g transform="translate(0.000000,774.000000) scale(0.100000,-0.100000)"
fill="#000000" stroke="none">
<path d="M3709 7556 c-2 -2 -44 -7 -94 -10 -100 -8 -121 -10 -250 -31 -179
-30 -278 -52 -440 -99 -124 -35 -372 -122 -390 -136 -5 -4 -21 -11 -35 -15
-42 -13 -259 -120 -365 -180 -173 -98 -433 -278 -546 -377 -15 -13 -49 -42
-76 -65 -59 -50 -225 -214 -303 -299 -53 -58 -73 -82 -172 -204 -46 -58 -169
-231 -203 -287 -125 -206 -217 -382 -289 -553 -46 -108 -149 -407 -160 -460
-2 -14 -14 -61 -25 -105 -11 -44 -27 -120 -36 -170 -10 -49 -19 -99 -21 -110
-3 -11 -7 -42 -10 -70 -3 -27 -7 -61 -9 -75 -27 -159 -27 -714 -1 -880 6 -38
19 -123 21 -140 1 -8 6 -37 10 -65 5 -27 10 -54 10 -60 3 -25 31 -141 61 -256
85 -321 226 -653 392 -927 32 -51 62 -101 67 -110 30 -51 123 -181 191 -268
208 -267 470 -522 734 -713 47 -33 90 -66 97 -71 7 -6 16 -10 22 -10 5 0 11
-4 13 -8 4 -9 157 -106 248 -156 115 -64 322 -162 440 -209 98 -39 338 -119
397 -132 10 -2 65 -16 123 -29 104 -25 248 -52 325 -62 22 -2 54 -7 70 -9 185
-27 755 -27 890 0 11 2 40 7 65 10 25 3 56 7 70 10 14 2 41 6 60 9 47 6 223
44 286 62 28 8 60 16 70 18 61 12 334 108 421 147 24 10 45 19 48 19 12 0 264
126 359 180 955 542 1627 1496 1810 2570 46 269 51 334 50 660 0 296 -5 364
-45 600 -45 267 -143 606 -230 798 -16 34 -29 65 -29 67 0 9 -120 252 -161
325 -187 336 -479 696 -775 956 -140 124 -391 314 -413 314 -5 0 -11 4 -13 8
-10 26 -384 229 -563 306 -155 67 -434 160 -573 191 -134 30 -258 55 -301 60
-30 3 -57 8 -60 9 -3 2 -40 7 -81 11 -41 4 -84 9 -95 12 -24 6 -580 14 -586 9z"/>
</g>
</svg>
